<svg width="32" height="32" viewBox="0 0 32 32" fill="none" xmlns="http://www.w3.org/2000/svg">
<path d="M14.8135 2H10.8359C10.0247 2 9.31045 2.53422 9.08122 3.31234L2.07572 27.0928C1.73053 28.2645 2.60887 29.439 3.83043 29.439H8.02357C8.84042 29.439 9.55826 28.8974 9.78252 28.1119L16.5725 4.33149C16.9061 3.163 16.0287 2 14.8135 2Z" fill="#5F8BFA"/>
<path d="M20.2341 13.8902H17.1627C16.6109 13.8902 16.1278 14.2607 15.9848 14.7937L12.4673 27.9034C12.2594 28.678 12.8431 29.4389 13.6451 29.4389H16.8248C17.3801 29.4389 17.8652 29.0638 18.005 28.5264L21.4143 15.4167C21.6152 14.6442 21.0322 13.8902 20.2341 13.8902Z" fill="#C1CCFC"/>
<path d="M28.8732 27.681L24.9424 19.6924C24.8879 19.5817 24.8155 19.4807 24.7281 19.3937C24.1136 18.7812 23.066 19.0706 22.853 19.9117L20.8242 27.92C20.629 28.6906 21.2114 29.4389 22.0064 29.4389H27.7789C28.6821 29.4389 29.2719 28.4914 28.8732 27.681Z" fill="#5F8BFA"/>
</svg>
