<?xml version="1.0" encoding="utf-8"?>
<!-- Generator: Adobe Illustrator 28.2.0, SVG Export Plug-In . SVG Version: 6.00 Build 0)  -->
<svg version="1.1" id="Camada_1" xmlns="http://www.w3.org/2000/svg" xmlns:xlink="http://www.w3.org/1999/xlink" x="0px" y="0px"
	 viewBox="0 0 613.4 700.6" style="enable-background:new 0 0 613.4 700.6;" xml:space="preserve">
<style type="text/css">
	.st0{fill:#F2F2F2;}
	.st1{fill:#E6E6E6;}
	.st2{fill:#3F3D56;}
	.st3{fill:#2F2E41;}
	.st4{fill:#FFB6B6;}
	.st5{fill:#5F8BFA;}
	.st6{fill:#CACACA;}
	.st7{fill:#FF6584;}
	.st8{fill:#FFFFFF;}
</style>
<path class="st0" d="M294.3,657.2l-0.8-17.6c-0.1,0-0.2-0.1-0.2-0.1c-8.4-4.4-18,3.6-15.3,12.6c2.5,8.5,4.2,17.7,8.8,25.2
	c5.5,8.8,14.7,14.6,25,15.8l10.6,6.5c3-16.5-1.5-33.4-12.1-46.4c-3-3.6-6.4-6.7-10.2-9.4C297.7,650.6,294.3,657.2,294.3,657.2z"/>
<path class="st1" d="M199.1,478.8c-20.5-21.1-50.2-33.2-81.5-33.2l-1.2,0c-20.6,0-40.8-5.5-58.6-15.8l-1.9-1.1l1.5-1.5
	c8.1-8.4,14.8-17.9,20-28.3c-7.4,6.9-17.6,10.2-27.7,8.9c-10.7-1.3-20.2-7.4-25.8-16.5C13,373.5,0,348.4,0,329.2
	c0-32.8,13.8-64,38.1-86.1c15.3-13.8,24.1-33.5,24-54.2l0-1.5c0-13.4,1.6-26.8,4.9-39.9l0.3-1.3l1.4,0c8.7,0.3,17.5-0.4,26-2.2
	c-8-1-15.9-3.1-23.4-6.2l-1.5-0.6l0.5-1.5c34.1-21.1,111.1-10.2,155.8-112.4c36.2-82.9,164.1,73.6,164.1,164
	c0,9.2-9.1,21.4-2.3,27.5c73.9,65.9,22.9,108.3,6.8,150.9c-3.8,10.1,4.5,21.2,4.5,32.1c0,1.9,0,3.8-0.1,5.7l-0.1,3l-2.5-1.6
	c-4.9-3.2-9.4-6.9-13.5-11.1c8.6,19.8,7.8,42.3-2.3,61.4c-7.7,14.6-15.2,25.1-22.3,31.1C311.6,526.5,241.8,523.2,199.1,478.8
	L199.1,478.8z"/>
<path class="st2" d="M322.8,698.8c1,0,1.9-0.8,2.1-1.8c0.1-0.6,8.8-63.5,1-147c-7.2-77.1-30.4-188.2-99.9-279.4
	c-0.7-0.9-2-1.1-2.9-0.4c-0.9,0.7-1.1,2-0.4,2.9c0,0,0,0,0,0c68.9,90.4,91.9,200.7,99.1,277.3c7.8,83-0.9,145.4-1,146
	c-0.2,1.1,0.6,2.2,1.8,2.4C322.6,698.8,322.7,698.8,322.8,698.8z"/>
<path class="st2" d="M266.1,399.3c1.2,0,2.1-0.9,2.1-2.1c0-0.7-0.3-1.3-0.9-1.7c-0.3-0.2-25.7-18.5-63.7-32.4
	c-35.1-12.9-88.6-24.5-143.6-7c-1.1,0.4-1.7,1.5-1.4,2.6c0.4,1.1,1.5,1.7,2.6,1.4l0,0c53.9-17.1,106.4-5.7,140.9,7
	c37.5,13.7,62.4,31.7,62.7,31.9C265.2,399.1,265.6,399.3,266.1,399.3z"/>
<path class="st2" d="M361.9,160.7c0.1-1.2-0.8-2.2-1.9-2.2c-0.7,0-1.3,0.2-1.8,0.7c-0.2,0.2-20.3,24.3-36.9,61.2
	c-15.4,34.1-30.8,86.6-17.3,142.7c0.3,1.1,1.4,1.8,2.5,1.5s1.8-1.4,1.5-2.5l0,0c-13.2-55,2-106.5,17.1-140
	c16.4-36.4,36.1-60,36.3-60.2C361.7,161.5,361.9,161.1,361.9,160.7z"/>
<path class="st3" d="M359.1,268.6c1.8,14.3,11.6,26,26,26c14.4,0,26-11.6,26-26l0,0c0-14.4-11.7-24.7-26-26
	C369.9,241.2,356.8,250.3,359.1,268.6z"/>
<polygon class="st4" points="397.1,687.3 407,687.3 411.7,649.1 397.1,649.1 "/>
<path class="st3" d="M396.8,697.7l30.4,0v-0.4c0-6.5-5.3-11.9-11.9-11.9h0l-5.6-4.2l-10.4,4.2l-2.7,0L396.8,697.7z"/>
<polygon class="st4" points="358.1,687.3 368,687.3 372.7,649.1 358.1,649.1 "/>
<path class="st3" d="M357.8,697.7l30.4,0v-0.4c0-6.5-5.3-11.9-11.9-11.9h0l-5.6-4.2l-10.4,4.2l-2.7,0L357.8,697.7z"/>
<path class="st3" d="M431.2,448.1l7,24l-8.2,101.6c0,0,4.2,6.4,1.2,6.4s-6.8,1.4-4.4,5.2s-5.9,17.4-5.9,17.4l-11.7,72.4l-14.9-0.2
	c0,0-7.6-4.2-3.3-8.5s7.3-4.3,3.3-8.3s-4-2.8-4-5.9s-4-41,5.5-55.6l-2.9-59.3l-6.7,58.2l-13.9,77.6l-14.4-0.1c0,0-6.6-6.4-6.6-11.1
	s4.1-5.1,1.1-7.9s-3-45.9,6-69.8c0,0,5.1-13.4,0-18s0-9.8,0-9.8s8.1-2.9,0-11.3s0-67.9,0-67.9s-8.8-24,0.1-33.5
	S431.2,448.1,431.2,448.1z"/>
<path class="st4" d="M306.5,489.5l12.5-30.2l9.8,5.5l-5.9,30.7c1.8,5.8-1.5,11.9-7.3,13.7s-11.9-1.5-13.7-7.3
	C300.5,497.2,302.4,492.1,306.5,489.5L306.5,489.5z"/>
<path class="st4" d="M516.1,250.8l-19,26.6l-8.3-7.6l12.7-28.6c-0.4-6,4.1-11.2,10.2-11.7c6-0.4,11.2,4.1,11.7,10.2
	C523.6,244.7,520.7,249.2,516.1,250.8z"/>
<path class="st5" d="M433.1,450.6c12.3,19.1-49.6,43.4-73.4,33.6c-4.2-1.7-18.5-7.3-8.7-15.1s-1.1-8.9-1.4-14
	c-0.2-3.4,2.5-10.9-0.3-10.5s-6-4.4,0-6.4s0.1-3.9,0.1-5.8c0.6-21,16.6-54.3,16.6-54.3l-29,74.1c0,0,0.2,12.8-3.5,8.9
	s-3.4,8.8-3.4,8.8s-5.5,3.8-2.3,6s-3.4,8.7-3.4,8.7l-15.3-1.1c0,0,0.2-11.4,2.9-13.9s1.3-6.5,1.3-6.5s6.8-6,2.2-10.9
	c-5.9-6.3,15.5-112.5,22.9-111.5c2.1-10.4,9.9-18.6,20.1-21.5l16.5-4.6L378,303h23.3l4.1,7.7l17.7,8c3.3-4.7,5.8-9.7,19.5-11.3
	c0,0,36.8-33.5,35-36.1s3.9-8.7,3.9-8.7s4.9-1.6,2.1-2.4s2.4-2.8,2.4-2.8s4.8-1.3,2.5-2.9s7.6-2.8,7.6-2.8l12.8,10.4l-2.6,4.4
	c0,0,1.6,6-0.5,3.8s-2.4,4.1-2.4,4.1s-1,6.9-7.3,9s-10.9,21.9-10.9,21.9c-14.7,19.1-32,33.9-52.5,43.7
	C440.7,358.1,433.1,450.6,433.1,450.6z"/>
<circle class="st4" cx="387.9" cy="273.1" r="23.1"/>
<path class="st3" d="M364.1,275.6c0.7,5,5,12,4,12s-8.1-20.7-1-22c5.2-1,6.3-0.1,11.1-2.2l-0.7,0.6c3.2,2.3,7.6,0.9,11.3-0.6
	c3.7-1.5,8.1-2.9,11.3-0.6c2,1.5,2.9,4,4.1,6.1c1.2,2.1,3.6,4.2,5.9,3.5c1.9-0.5,3-2.7,3-4.6s-2.6-3.9-1.7-5.6
	c2.6-5.3,0.3-8.9-5.3-11.3c-2-0.3-4.1-0.6-6.1-1c1.1-1.5,2.4-2.8,3.8-3.9c-0.6-1.6-1.7-3-3.1-4c-1.6-1-3.7-0.9-5.5-0.8
	c-4.2,0.2-8.4,0.4-12.7,0.7c-3.1,0.2-6.3,0.4-9.1,1.8c-3.5,1.8-5.8,5.3-7.4,8.8C362.2,260.5,362.8,266.9,364.1,275.6z"/>
<path class="st6" d="M268.2,700.3l226.8,0.3c0.7,0,1.2-0.5,1.2-1.2s-0.5-1.2-1.2-1.2c0,0,0,0,0,0l-226.8-0.3c-0.7,0-1.2,0.5-1.2,1.2
	C267,699.7,267.5,700.3,268.2,700.3z"/>
<ellipse transform="matrix(0.144 -0.9896 0.9896 0.144 -436.2309 686.4554)" class="st1" cx="178.7" cy="595.4" rx="5.3" ry="7.6"/>
<ellipse transform="matrix(0.144 -0.9896 0.9896 0.144 -389.3911 731.0073)" class="st2" cx="227.8" cy="590.6" rx="5.3" ry="7.6"/>
<ellipse transform="matrix(0.144 -0.9896 0.9896 0.144 -408.3635 639.0546)" class="st7" cx="165.2" cy="555.6" rx="5.3" ry="7.6"/>
<ellipse transform="matrix(7.561574e-03 -1 1 7.561574e-03 -393.4377 684.2231)" class="st1" cx="148" cy="540.3" rx="4.8" ry="3.3"/>
<ellipse transform="matrix(7.561574e-03 -1 1 7.561574e-03 -370.2579 646.8356)" class="st2" cx="140.7" cy="510" rx="4.8" ry="3.3"/>
<ellipse transform="matrix(7.561574e-03 -1 1 7.561574e-03 -367.7892 756.2269)" class="st1" cx="197.1" cy="563.4" rx="4.8" ry="3.3"/>
<ellipse transform="matrix(7.561574e-03 -1 1 7.561574e-03 -403.235 744.2401)" class="st7" cx="173.3" cy="575.3" rx="4.8" ry="3.3"/>
<ellipse transform="matrix(7.561574e-03 -1 1 7.561574e-03 -392.3349 799.0784)" class="st2" cx="206.4" cy="597.2" rx="4.8" ry="3.3"/>
<ellipse transform="matrix(0.144 -0.9896 0.9896 0.144 39.7398 928.6899)" class="st1" cx="556.7" cy="441.4" rx="5.3" ry="7.6"/>
<ellipse transform="matrix(0.144 -0.9896 0.9896 0.144 86.5796 973.2418)" class="st2" cx="605.8" cy="436.6" rx="5.3" ry="7.6"/>
<ellipse transform="matrix(0.144 -0.9896 0.9896 0.144 67.6067 881.2885)" class="st7" cx="543.2" cy="401.6" rx="5.3" ry="7.6"/>
<ellipse transform="matrix(7.561574e-03 -1 1 7.561574e-03 135.6997 909.3768)" class="st1" cx="526" cy="386.3" rx="4.8" ry="3.3"/>
<ellipse transform="matrix(7.561574e-03 -1 1 7.561574e-03 158.8795 871.9893)" class="st2" cx="518.7" cy="356" rx="4.8" ry="3.3"/>
<ellipse transform="matrix(7.561574e-03 -1 1 7.561574e-03 161.3482 981.3807)" class="st1" cx="575.1" cy="409.4" rx="4.8" ry="3.3"/>
<ellipse transform="matrix(7.561574e-03 -1 1 7.561574e-03 125.9025 969.3937)" class="st7" cx="551.3" cy="421.3" rx="4.8" ry="3.3"/>
<ellipse transform="matrix(7.561574e-03 -1 1 7.561574e-03 136.8025 1024.2319)" class="st2" cx="584.4" cy="443.2" rx="4.8" ry="3.3"/>
<ellipse transform="matrix(0.144 -0.9896 0.9896 0.144 165.1187 503.6311)" class="st8" cx="373.7" cy="156.4" rx="5.3" ry="7.6"/>
<ellipse transform="matrix(0.144 -0.9896 0.9896 0.144 211.9586 548.183)" class="st2" cx="422.8" cy="151.6" rx="5.3" ry="7.6"/>
<ellipse transform="matrix(0.144 -0.9896 0.9896 0.144 192.9862 456.2302)" class="st7" cx="360.2" cy="116.6" rx="5.3" ry="7.6"/>
<ellipse transform="matrix(7.561574e-03 -1 1 7.561574e-03 239.0753 443.5371)" class="st1" cx="343" cy="101.3" rx="4.8" ry="3.3"/>
<ellipse transform="matrix(7.561574e-03 -1 1 7.561574e-03 262.2551 406.1496)" class="st2" cx="335.7" cy="71" rx="4.8" ry="3.3"/>
<ellipse transform="matrix(7.561574e-03 -1 1 7.561574e-03 264.7238 515.5409)" class="st1" cx="392.1" cy="124.4" rx="4.8" ry="3.3"/>
<ellipse transform="matrix(7.561574e-03 -1 1 7.561574e-03 229.278 503.554)" class="st7" cx="368.3" cy="136.3" rx="4.8" ry="3.3"/>
<ellipse transform="matrix(7.561574e-03 -1 1 7.561574e-03 240.1781 558.3923)" class="st2" cx="401.4" cy="158.2" rx="4.8" ry="3.3"/>
</svg>
